<svg width="208" height="48" viewBox="0 0 208 48" fill="none" xmlns="http://www.w3.org/2000/svg">
<path d="M43.3682 13.0754C45.2353 9.05239 48.4867 8.95115 50.488 12.9202C52.4731 16.8554 54.3778 20.8514 56.3147 24.8204C56.4757 25.1512 56.6581 25.4684 56.9586 26.0354C58.2838 23.3354 59.5339 20.7772 60.7894 18.2189C61.7069 16.3559 62.5922 14.4727 63.5526 12.6434C64.4647 10.9019 65.6933 9.70715 67.4639 10.0919C69.1593 10.4564 70.2002 11.7997 70.6831 13.8922C72.3034 20.9594 73.9345 28.0199 75.6085 35.0669C75.9197 36.3764 75.6997 36.7814 74.6159 36.7139C73.1029 36.6262 71.5791 36.6194 70.0607 36.7004C69.1218 36.7476 68.7194 36.3292 68.5155 35.1749C68.0058 32.2117 67.4156 29.2754 66.8147 26.3392C66.6269 25.4009 66.3211 24.5032 66.0689 23.5919C65.5485 23.8687 65.3231 24.4087 65.0656 24.9419C63.6223 27.9119 62.1683 30.8752 60.6982 33.8249C58.6433 37.9694 55.349 37.9964 53.2404 33.8991C51.7005 30.9021 50.1929 27.8714 48.6155 24.9014C48.4491 24.5909 48.4116 23.8821 47.8375 24.0239C47.2795 24.1656 47.3814 24.7462 47.2956 25.1984C46.7698 27.9794 46.2493 30.7604 45.7289 33.5414C45.407 35.3234 45.1548 35.4854 44.0335 34.3784C42.7029 33.0621 41.4205 31.6582 40.1114 30.3014C39.3763 29.5319 39.3549 28.7151 40.1114 27.9119C40.4548 27.5541 40.8143 27.2234 41.1362 26.8252C43.2555 24.1994 43.7598 20.9391 43.0409 17.5101C42.7029 15.8361 42.6975 14.4861 43.3682 13.0754Z" fill="#06B6D4"/>
<path d="M44.6719 36.0252C44.7202 36.7947 44.2588 36.5922 43.9476 36.5922C41.4098 36.6057 38.872 36.5719 36.3342 36.6124C35.6689 36.6259 35.2718 36.1669 34.8319 35.6944C30.2499 30.7332 25.6679 25.7787 21.0859 20.8174C21.0054 20.7702 20.9196 20.7364 20.8444 20.6824C18.8539 19.1434 18.8164 19.0894 17.0243 21.0402C12.7857 25.6437 8.53637 30.2269 4.34068 34.8912C3.69684 35.6067 2.94568 36.0454 2.24819 36.6327C1.64191 36.6327 1.03027 36.6327 0.00012207 36.6327C1.81897 34.6212 3.32662 32.9269 4.85575 31.2597C10.9293 24.6447 17.0136 18.0499 23.0657 11.4012C23.7578 10.6452 24.4285 10.3077 25.3406 10.3549C28.8549 10.5439 32.396 9.95669 35.8781 11.0029C38.1959 11.6982 40.2187 13.0009 41.6727 15.4647C43.674 17.8677 43.2877 22.9504 41.5439 25.4749C40.8196 26.5279 40.0738 27.5944 39.0383 28.1952C38.1584 28.7014 38.4428 29.1874 38.99 29.7409C40.6211 31.3812 42.2629 33.0079 43.8027 34.7764C44.1354 35.1544 44.4841 35.4987 44.6719 36.0252Z" fill="#030303"/>
<path d="M20.544 21.8438C20.7586 22.7551 20.0986 22.9846 19.7392 23.3828C15.7259 27.8041 11.6912 32.1983 7.66179 36.5926C6.86772 37.1191 6.01462 36.7073 5.19373 36.8221C4.904 36.8626 4.52306 36.9638 4.37283 36.4981C4.2387 36.0931 4.43185 35.7286 4.63574 35.4248C5.4459 34.2166 6.48677 33.3188 7.42034 32.2861C10.7308 28.6141 14.1324 25.0771 17.3945 21.3308C18.8271 19.6973 19.5943 19.8188 20.544 21.8438Z" fill="#06B6D4"/>
<path d="M20.1898 17.186C24.5948 17.186 28.6456 17.186 32.7018 17.1928C32.9647 17.1928 33.233 17.2805 33.4959 17.3413C35.2235 17.7395 36.0176 18.6373 36.0176 20.1898C36.0176 21.6545 35.0894 22.9235 33.4798 23.0585C30.9903 23.261 28.4847 23.18 25.9844 23.18C25.7483 23.18 25.4801 22.964 25.2869 22.7548C23.6612 21.0065 22.0516 19.2313 20.1898 17.186Z" fill="#FDFDFD"/>
<rect x="19.3153" y="33.625" width="2.68267" height="3.375" fill="#212222"/>
<rect x="19.3153" y="28.8999" width="2.68267" height="3.375" fill="#212222"/>
<rect x="16.0961" y="33.625" width="2.68267" height="3.375" fill="#212222"/>
<rect x="16.0961" y="28.8999" width="2.68267" height="3.375" fill="#212222"/>
<path d="M180 25.5681C180 26.1027 179.981 26.5644 179.942 26.9532H173.587C173.69 28.0386 173.935 28.8 174.321 29.2374C174.708 29.6748 175.242 29.8935 175.925 29.8935C176.337 29.8935 176.736 29.8044 177.122 29.6262C177.508 29.4318 177.927 29.1402 178.378 28.7514L179.633 30.8898C178.436 32.0886 177.103 32.688 175.635 32.688C173.974 32.688 172.699 32.0724 171.81 30.8412C170.922 29.61 170.478 27.9576 170.478 25.884C170.478 24.5718 170.664 23.3973 171.038 22.3605C171.411 21.3075 171.959 20.4813 172.68 19.8819C173.401 19.2663 174.263 18.9585 175.268 18.9585C176.749 18.9585 177.908 19.5417 178.745 20.7081C179.582 21.8745 180 23.4945 180 25.5681ZM177.006 24.4746C176.981 22.4982 176.427 21.51 175.345 21.51C174.817 21.51 174.405 21.753 174.109 22.239C173.826 22.725 173.652 23.5269 173.587 24.6447H177.006V24.4746Z" fill="#06B6D4"/>
<path d="M170.378 31.6673C170.005 31.9913 169.567 32.2424 169.065 32.4206C168.575 32.5988 168.086 32.6879 167.597 32.6879C165.356 32.6717 164.236 31.1165 164.236 28.0223V22.0445H162.787V19.3715H164.236V16.577L167.288 16.1396V19.3715H169.644L169.316 22.0445H167.288V27.9737C167.288 28.5731 167.365 29.0024 167.519 29.2616C167.674 29.5208 167.918 29.6504 168.253 29.6504C168.601 29.6504 168.968 29.5127 169.354 29.2373L170.378 31.6673Z" fill="#06B6D4"/>
<path d="M161.515 28.5327C161.515 29.0187 161.567 29.3751 161.67 29.6019C161.786 29.8287 161.966 29.9988 162.211 30.1122L161.573 32.6151C160.942 32.5503 160.427 32.3802 160.028 32.1048C159.629 31.8132 159.32 31.3596 159.101 30.744C158.431 32.04 157.401 32.688 156.01 32.688C154.993 32.688 154.182 32.3154 153.577 31.5702C152.971 30.825 152.669 29.853 152.669 28.6542C152.669 27.2448 153.081 26.1675 153.905 25.4223C154.729 24.6771 155.92 24.3045 157.478 24.3045H158.521V23.7456C158.521 22.9842 158.393 22.4658 158.135 22.1904C157.877 21.8988 157.427 21.753 156.783 21.753C156.448 21.753 156.043 21.8178 155.566 21.9474C155.09 22.0608 154.6 22.2228 154.098 22.4334L153.403 19.9062C154.047 19.5984 154.703 19.3635 155.373 19.2015C156.055 19.0395 156.686 18.9585 157.266 18.9585C158.734 18.9585 159.809 19.3392 160.491 20.1006C161.174 20.862 161.515 22.0041 161.515 23.5269V28.5327ZM156.899 29.9421C157.594 29.9421 158.135 29.529 158.521 28.7028V26.4186H157.768C157.073 26.4186 156.551 26.5725 156.203 26.8803C155.869 27.1881 155.701 27.666 155.701 28.314C155.701 28.8324 155.804 29.2374 156.01 29.529C156.229 29.8044 156.525 29.9421 156.899 29.9421Z" fill="#06B6D4"/>
<path d="M151.527 32.275H148.417L148.185 25.6897C148.121 24.1183 148.089 22.717 148.089 21.4858C148.089 20.5462 148.108 19.6552 148.146 18.8128L146.08 30.5011H143.086L140.884 18.8128C140.961 20.2222 141 21.5506 141 22.798C141 23.7376 140.981 24.7177 140.942 25.7383L140.71 32.275H137.62L138.624 15.4351H142.622L144.631 26.8561L146.505 15.4351H150.522L151.527 32.275Z" fill="#06B6D4"/>
<path d="M133.202 18.9585C134.013 18.9585 134.663 19.3068 135.153 20.0034C135.642 20.6838 135.887 21.6315 135.887 22.8465V32.2749H132.835V23.5026C132.835 22.3524 132.545 21.7773 131.966 21.7773C131.644 21.7773 131.36 21.915 131.116 22.1904C130.871 22.4658 130.633 22.887 130.401 23.454V32.2749H127.349V23.5026C127.349 22.3524 127.06 21.7773 126.48 21.7773C126.171 21.7773 125.888 21.9231 125.63 22.2147C125.386 22.4901 125.147 22.9032 124.916 23.454V32.2749H121.864V19.3716H124.529L124.742 20.8782C125.141 20.2302 125.579 19.7523 126.055 19.4445C126.544 19.1205 127.098 18.9585 127.716 18.9585C128.296 18.9585 128.791 19.1367 129.204 19.4931C129.628 19.8495 129.937 20.3517 130.131 20.9997C130.543 20.3031 130.993 19.7928 131.483 19.4688C131.985 19.1286 132.558 18.9585 133.202 18.9585Z" fill="black"/>
<path d="M115.026 18.9585C116.597 18.9585 117.827 19.566 118.716 20.781C119.604 21.9798 120.048 23.6646 120.048 25.8354C120.048 27.2124 119.842 28.4193 119.43 29.4561C119.031 30.4767 118.452 31.2705 117.692 31.8375C116.945 32.4045 116.057 32.688 115.026 32.688C113.468 32.688 112.239 32.0886 111.337 30.8898C110.449 29.6748 110.004 27.9819 110.004 25.8111C110.004 24.4341 110.204 23.2353 110.603 22.2147C111.015 21.1779 111.595 20.376 112.342 19.809C113.101 19.242 113.996 18.9585 115.026 18.9585ZM115.026 21.7773C114.408 21.7773 113.945 22.1094 113.636 22.7736C113.327 23.4216 113.172 24.4341 113.172 25.8111C113.172 27.2205 113.32 28.2492 113.616 28.8972C113.925 29.5452 114.395 29.8692 115.026 29.8692C115.645 29.8692 116.108 29.5452 116.417 28.8972C116.726 28.233 116.881 27.2124 116.881 25.8354C116.881 24.426 116.726 23.3973 116.417 22.7493C116.121 22.1013 115.657 21.7773 115.026 21.7773Z" fill="black"/>
<path d="M103.747 18.9585C105.318 18.9585 106.547 19.566 107.436 20.781C108.324 21.9798 108.769 23.6646 108.769 25.8354C108.769 27.2124 108.563 28.4193 108.151 29.4561C107.751 30.4767 107.172 31.2705 106.412 31.8375C105.665 32.4045 104.777 32.688 103.747 32.688C102.189 32.688 100.959 32.0886 100.057 30.8898C99.169 29.6748 98.7247 27.9819 98.7247 25.8111C98.7247 24.4341 98.9243 23.2353 99.3235 22.2147C99.7356 21.1779 100.315 20.376 101.062 19.809C101.822 19.242 102.717 18.9585 103.747 18.9585ZM103.747 21.7773C103.129 21.7773 102.665 22.1094 102.356 22.7736C102.047 23.4216 101.892 24.4341 101.892 25.8111C101.892 27.2205 102.041 28.2492 102.337 28.8972C102.646 29.5452 103.116 29.8692 103.747 29.8692C104.365 29.8692 104.828 29.5452 105.137 28.8972C105.446 28.233 105.601 27.2124 105.601 25.8354C105.601 24.426 105.446 23.3973 105.137 22.7493C104.841 22.1013 104.378 21.7773 103.747 21.7773Z" fill="black"/>
<path d="M92.1278 25.8355H90.8916V32.275H87.7239V15.4351H92.1085C93.937 15.4351 95.3084 15.8563 96.2226 16.6987C97.1498 17.5411 97.6133 18.829 97.6133 20.5624C97.6133 21.6478 97.4073 22.555 96.9952 23.284C96.5832 23.9968 95.9329 24.6043 95.0444 25.1065L98.4439 32.275H94.8706L92.1278 25.8355ZM90.8916 23.0896H92.2244C92.9326 23.0896 93.4606 22.8871 93.8082 22.4821C94.1688 22.0771 94.3491 21.4372 94.3491 20.5624C94.3491 19.7524 94.1559 19.1611 93.7696 18.7885C93.3962 18.4159 92.8167 18.2296 92.0312 18.2296H90.8916V23.0896Z" fill="black"/>
</svg>
