<svg width="176" height="103" viewBox="0 0 176 103" fill="none" xmlns="http://www.w3.org/2000/svg">
<path d="M97.83 4.55613C101.31 -1.40387 107.37 -1.55385 111.1 4.32615C114.8 10.1562 118.35 16.0762 121.96 21.9562C122.26 22.4462 122.6 22.9161 123.16 23.7561C125.63 19.7561 127.96 15.9662 130.3 12.1762C132.01 9.41616 133.66 6.62615 135.45 3.91615C137.15 1.33615 139.44 -0.43385 142.74 0.13615C145.9 0.67615 147.84 2.66616 148.74 5.76616C151.76 16.2362 154.8 26.6962 157.92 37.1362C158.5 39.0761 158.09 39.6762 156.07 39.5762C153.25 39.4462 150.41 39.4361 147.58 39.5561C145.83 39.6261 145.08 39.0062 144.7 37.2962C143.75 32.9062 142.65 28.5562 141.53 24.2062C141.18 22.8162 140.61 21.4862 140.14 20.1362C139.17 20.5462 138.75 21.3461 138.27 22.1362C135.58 26.5361 132.87 30.9262 130.13 35.2962C126.3 41.4362 120.16 41.4761 116.23 35.4061C113.36 30.9661 110.55 26.4762 107.61 22.0762C107.3 21.6162 107.23 20.5661 106.16 20.7761C105.12 20.9861 105.31 21.8462 105.15 22.5162C104.17 26.6362 103.2 30.7561 102.23 34.8761C101.63 37.5161 101.16 37.7561 99.07 36.1161C96.59 34.1661 94.2 32.0862 91.76 30.0762C90.39 28.9362 90.35 27.7261 91.76 26.5361C92.4 26.0061 93.07 25.5162 93.67 24.9262C97.62 21.0362 98.56 16.2061 97.22 11.1261C96.59 8.64614 96.58 6.64613 97.83 4.55613Z" fill="#06B6D4"/>
<path d="M100.26 38.556C100.35 39.696 99.49 39.396 98.91 39.396C94.18 39.416 89.45 39.366 84.72 39.426C83.48 39.446 82.74 38.766 81.92 38.066C73.38 30.716 64.84 23.376 56.3 16.026C56.15 15.956 55.99 15.906 55.85 15.826C52.14 13.546 52.07 13.466 48.73 16.356C40.83 23.176 32.91 29.966 25.09 36.876C23.89 37.936 22.49 38.586 21.19 39.456C20.06 39.456 18.92 39.456 17 39.456C20.39 36.476 23.2 33.966 26.05 31.496C37.37 21.696 48.71 11.926 59.99 2.07599C61.28 0.955985 62.53 0.455967 64.23 0.525967C70.78 0.805967 77.38 -0.0640111 83.87 1.48599C88.19 2.51599 91.96 4.44597 94.67 8.09597C98.4 11.656 97.68 19.186 94.43 22.926C93.08 24.486 91.69 26.066 89.76 26.956C88.12 27.706 88.65 28.426 89.67 29.246C92.71 31.676 95.77 34.086 98.64 36.706C99.26 37.266 99.91 37.776 100.26 38.556Z" fill="#030303"/>
<path d="M55.2899 17.546C55.6899 18.896 54.4599 19.236 53.7899 19.826C46.3099 26.376 38.79 32.8859 31.28 39.3959C29.8 40.1759 28.2099 39.566 26.6799 39.736C26.1399 39.796 25.4299 39.946 25.1499 39.256C24.8999 38.656 25.26 38.116 25.64 37.666C27.15 35.876 29.0899 34.546 30.8299 33.016C36.9999 27.576 43.34 22.336 49.42 16.786C52.09 14.366 53.5199 14.546 55.2899 17.546Z" fill="#06B6D4"/>
<path d="M54.6299 10.646C62.8399 10.646 70.39 10.646 77.95 10.656C78.44 10.656 78.94 10.786 79.43 10.876C82.65 11.466 84.1299 12.796 84.1299 15.096C84.1299 17.266 82.3999 19.146 79.3999 19.346C74.7599 19.646 70.09 19.526 65.43 19.526C64.99 19.526 64.4899 19.206 64.1299 18.896C61.0999 16.306 58.0999 13.676 54.6299 10.646Z" fill="#FDFDFD"/>
<rect x="47" y="28" width="5" height="5" rx="1" fill="#212222"/>
<rect x="47" y="35" width="5" height="5" rx="1" fill="#212222"/>
<rect x="53" y="28" width="5" height="5" rx="1" fill="#212222"/>
<rect x="53" y="35" width="5" height="5" rx="1" fill="#212222"/>
<path d="M10.548 84.46H8.244V94H2.34V69.052H10.512C13.92 69.052 16.476 69.676 18.18 70.924C19.908 72.172 20.772 74.08 20.772 76.648C20.772 78.256 20.388 79.6 19.62 80.68C18.852 81.736 17.64 82.636 15.984 83.38L22.32 94H15.66L10.548 84.46ZM8.244 80.392H10.728C12.048 80.392 13.032 80.092 13.68 79.492C14.352 78.892 14.688 77.944 14.688 76.648C14.688 75.448 14.328 74.572 13.608 74.02C12.912 73.468 11.832 73.192 10.368 73.192H8.244V80.392ZM32.2034 74.272C35.1314 74.272 37.4234 75.172 39.0794 76.972C40.7354 78.748 41.5634 81.244 41.5634 84.46C41.5634 86.5 41.1794 88.288 40.4114 89.824C39.6674 91.336 38.5874 92.512 37.1714 93.352C35.7794 94.192 34.1234 94.612 32.2034 94.612C29.2994 94.612 27.0074 93.724 25.3274 91.948C23.6714 90.148 22.8434 87.64 22.8434 84.424C22.8434 82.384 23.2154 80.608 23.9594 79.096C24.7274 77.56 25.8074 76.372 27.1994 75.532C28.6154 74.692 30.2834 74.272 32.2034 74.272ZM32.2034 78.448C31.0514 78.448 30.1874 78.94 29.6114 79.924C29.0354 80.884 28.7474 82.384 28.7474 84.424C28.7474 86.512 29.0234 88.036 29.5754 88.996C30.1514 89.956 31.0274 90.436 32.2034 90.436C33.3554 90.436 34.2194 89.956 34.7954 88.996C35.3714 88.012 35.6594 86.5 35.6594 84.46C35.6594 82.372 35.3714 80.848 34.7954 79.888C34.2434 78.928 33.3794 78.448 32.2034 78.448ZM53.2268 74.272C56.1548 74.272 58.4468 75.172 60.1028 76.972C61.7588 78.748 62.5868 81.244 62.5868 84.46C62.5868 86.5 62.2028 88.288 61.4348 89.824C60.6908 91.336 59.6108 92.512 58.1948 93.352C56.8028 94.192 55.1468 94.612 53.2268 94.612C50.3228 94.612 48.0308 93.724 46.3508 91.948C44.6948 90.148 43.8668 87.64 43.8668 84.424C43.8668 82.384 44.2388 80.608 44.9828 79.096C45.7508 77.56 46.8308 76.372 48.2228 75.532C49.6388 74.692 51.3068 74.272 53.2268 74.272ZM53.2268 78.448C52.0748 78.448 51.2108 78.94 50.6348 79.924C50.0588 80.884 49.7708 82.384 49.7708 84.424C49.7708 86.512 50.0468 88.036 50.5988 88.996C51.1748 89.956 52.0508 90.436 53.2268 90.436C54.3788 90.436 55.2428 89.956 55.8188 88.996C56.3948 88.012 56.6828 86.5 56.6828 84.46C56.6828 82.372 56.3948 80.848 55.8188 79.888C55.2668 78.928 54.4028 78.448 53.2268 78.448ZM87.1023 74.272C88.6143 74.272 89.8263 74.788 90.7383 75.82C91.6503 76.828 92.1063 78.232 92.1063 80.032V94H86.4183V81.004C86.4183 79.3 85.8783 78.448 84.7983 78.448C84.1983 78.448 83.6703 78.652 83.2143 79.06C82.7583 79.468 82.3143 80.092 81.8823 80.932V94H76.1943V81.004C76.1943 79.3 75.6543 78.448 74.5743 78.448C73.9983 78.448 73.4703 78.664 72.9903 79.096C72.5343 79.504 72.0903 80.116 71.6583 80.932V94H65.9703V74.884H70.9383L71.3343 77.116C72.0783 76.156 72.8943 75.448 73.7823 74.992C74.6943 74.512 75.7263 74.272 76.8783 74.272C77.9583 74.272 78.8823 74.536 79.6503 75.064C80.4423 75.592 81.0183 76.336 81.3783 77.296C82.1463 76.264 82.9863 75.508 83.8983 75.028C84.8343 74.524 85.9023 74.272 87.1023 74.272Z" fill="black"/>
<path d="M121.256 94H115.46L115.028 84.244C114.908 81.916 114.848 79.84 114.848 78.016C114.848 76.624 114.884 75.304 114.956 74.056L111.104 91.372H105.524L101.42 74.056C101.564 76.144 101.636 78.112 101.636 79.96C101.636 81.352 101.6 82.804 101.528 84.316L101.096 94H95.3364L97.2084 69.052H104.66L108.404 85.972L111.896 69.052H119.384L121.256 94ZM139.873 88.456C139.873 89.176 139.969 89.704 140.161 90.04C140.377 90.376 140.713 90.628 141.169 90.796L139.981 94.504C138.805 94.408 137.845 94.156 137.101 93.748C136.357 93.316 135.781 92.644 135.373 91.732C134.125 93.652 132.205 94.612 129.613 94.612C127.717 94.612 126.205 94.06 125.077 92.956C123.949 91.852 123.385 90.412 123.385 88.636C123.385 86.548 124.153 84.952 125.689 83.848C127.225 82.744 129.445 82.192 132.349 82.192H134.293V81.364C134.293 80.236 134.053 79.468 133.573 79.06C133.093 78.628 132.253 78.412 131.053 78.412C130.429 78.412 129.673 78.508 128.785 78.7C127.897 78.868 126.985 79.108 126.049 79.42L124.753 75.676C125.953 75.22 127.177 74.872 128.425 74.632C129.697 74.392 130.873 74.272 131.953 74.272C134.689 74.272 136.693 74.836 137.965 75.964C139.237 77.092 139.873 78.784 139.873 81.04V88.456ZM131.269 90.544C132.565 90.544 133.573 89.932 134.293 88.708V85.324H132.889C131.593 85.324 130.621 85.552 129.973 86.008C129.349 86.464 129.037 87.172 129.037 88.132C129.037 88.9 129.229 89.5 129.613 89.932C130.021 90.34 130.573 90.544 131.269 90.544ZM156.392 93.1C155.696 93.58 154.88 93.952 153.944 94.216C153.032 94.48 152.12 94.612 151.208 94.612C147.032 94.588 144.944 92.284 144.944 87.7V78.844H142.244V74.884H144.944V70.744L150.632 70.096V74.884H155.024L154.412 78.844H150.632V87.628C150.632 88.516 150.776 89.152 151.064 89.536C151.352 89.92 151.808 90.112 152.432 90.112C153.08 90.112 153.764 89.908 154.484 89.5L156.392 93.1ZM174.326 84.064C174.326 84.856 174.29 85.54 174.218 86.116H162.374C162.566 87.724 163.022 88.852 163.742 89.5C164.462 90.148 165.458 90.472 166.73 90.472C167.498 90.472 168.242 90.34 168.962 90.076C169.682 89.788 170.462 89.356 171.302 88.78L173.642 91.948C171.41 93.724 168.926 94.612 166.19 94.612C163.094 94.612 160.718 93.7 159.062 91.876C157.406 90.052 156.578 87.604 156.578 84.532C156.578 82.588 156.926 80.848 157.622 79.312C158.318 77.752 159.338 76.528 160.682 75.64C162.026 74.728 163.634 74.272 165.506 74.272C168.266 74.272 170.426 75.136 171.986 76.864C173.546 78.592 174.326 80.992 174.326 84.064ZM168.746 82.444C168.698 79.516 167.666 78.052 165.65 78.052C164.666 78.052 163.898 78.412 163.346 79.132C162.818 79.852 162.494 81.04 162.374 82.696H168.746V82.444Z" fill="#06B6D4"/>
</svg>
